<?xml version="1.0" standalone="no"?><!DOCTYPE svg PUBLIC "-//W3C//DTD SVG 1.1//EN" "http://www.w3.org/Graphics/SVG/1.1/DTD/svg11.dtd"><svg t="1515502163246" class="icon" fill="red" style="" viewBox="0 0 1880 1024" version="1.1" xmlns="http://www.w3.org/2000/svg" p-id="6242" xmlns:xlink="http://www.w3.org/1999/xlink" width="367.1875" height="200"><defs><style type="text/css"></style></defs><path d="M1793.536 341.504V170.496C1793.536 76.8 1716.736 0 1623.04 0H172.032C78.336 0 1.536 76.8 1.536 170.496v682.496c0 93.696 76.8 170.496 170.496 170.496h1450.496c93.696 0 170.496-76.8 170.496-170.496v-170.496c47.104 0 85.504-38.4 85.504-85.504V426.496c0-46.592-38.4-84.992-84.992-84.992z m-85.504 84.992v426.496c0 47.104-38.4 85.504-85.504 85.504H172.032c-47.104 0-85.504-38.4-85.504-85.504V170.496c0-47.104 38.4-85.504 85.504-85.504h1450.496c47.104 0 85.504 38.4 85.504 85.504v256z" fill="" p-id="6243"></path><path d="M248.832 170.496h280.576v682.496H248.832zM754.688 170.496h280.576v682.496h-280.576zM1261.056 170.496h280.576v682.496h-280.576z" fill="" p-id="6244"></path></svg>